<svg width="342" height="677" viewBox="0 0 342 677" fill="none" xmlns="http://www.w3.org/2000/svg">
<path d="M342 677H0V658H342V677ZM286 617C286 631.45 296.947 643.343 311 644.84V645H31V644.84C45.0532 643.343 56 631.45 56 617V581H286V617ZM69 626H273V613H69V626ZM132 555H93V214H132V555ZM197 555H145V214H197V555ZM249 555H210V214H249V555ZM276 175H266V188H76V175H66V156H276V175ZM143 143H80.8271C92.4777 135.296 101.306 123.668 105.43 110H143V143ZM185 143H157V110H185V143ZM236.57 110C240.694 123.668 249.522 135.296 261.173 143H199V110H236.57ZM295 45.0107C320.496 45.5429 341 66.3768 341 92C341 117.957 319.957 139 294 139C268.043 139 247 117.957 247 92C247 87.1241 247.744 82.422 249.122 78H269.747C267.365 82.1185 266 86.8998 266 92C266 107.464 278.536 120 294 120C309.464 120 322 107.464 322 92C322 76.703 309.733 64.2726 294.5 64.0059V64H47.5V64.0059C47.3337 64.0029 47.167 64 47 64C31.536 64 19 76.536 19 92C19 107.464 31.536 120 47 120C62.464 120 75 107.464 75 92C75 86.8998 73.6355 82.1185 71.2529 78H91.8779C93.2563 82.422 94 87.1241 94 92C94 117.957 72.9574 139 47 139C21.0426 139 0 117.957 0 92C0 66.0426 21.0426 45 47 45H295V45.0107ZM236 97H106V78H236V97ZM311 19H295V32H47V19H35V0H311V19Z" fill="#0072F0"></path>
</svg>