<svg width="1097" height="332" viewBox="0 0 1097 332" fill="none" xmlns="http://www.w3.org/2000/svg">
<path d="M167.716 332H0V322.683H167.716V332ZM140.254 302.576L140.259 302.931C140.434 309.856 145.738 315.505 152.514 316.228V316.308H15.2021V316.228C21.9784 315.506 27.2824 309.856 27.458 302.931L27.4619 302.576H27.4629V291.297H27.4619V284.922H140.254V302.576ZM33.8379 306.989H133.879V300.614H33.8379V306.989ZM64.7324 272.171H45.6064V104.945H64.7324V272.171ZM96.6084 272.171H71.1074V104.945H96.6084V272.171ZM122.108 272.171H102.983V104.945H122.108V272.171ZM353.161 119.9L399.766 196.435L444.361 119.9H445.711L458.597 216.747C459.173 219.416 460.427 221.534 462.361 223.1C464.461 224.7 466.811 225.5 469.411 225.5H471.812V227H426.812V225.65H429.062C430.761 225.65 432.162 225 433.262 223.7C434.362 222.3 434.911 220.8 434.911 219.2V218.716L429.058 164.867L401.012 213.5C401.012 213.5 400.512 214.4 399.512 216.2C398.512 217.9 397.512 220 396.512 222.5C395.612 225 395.161 227.5 395.161 230H393.661L355.099 165.251L349.262 218.748V219.2C349.262 220.8 349.811 222.3 350.911 223.7C352.111 225 353.511 225.65 355.111 225.65H357.361V227H326.012V225.5H328.411C331.111 225.5 333.511 224.7 335.611 223.1C337.387 221.662 338.552 219.759 339.112 217.393L351.812 119.9H353.161ZM977.478 119.9L1024.08 196.435L1068.68 119.9H1070.03L1082.91 216.747C1083.49 219.416 1084.74 221.534 1086.68 223.1C1088.78 224.7 1091.13 225.5 1093.73 225.5H1096.13V227H1051.13V225.65H1053.38C1055.08 225.65 1056.48 225 1057.58 223.7C1058.68 222.3 1059.23 220.8 1059.23 219.2V218.716L1053.37 164.867L1025.33 213.5C1025.33 213.5 1024.83 214.4 1023.83 216.2C1022.83 217.9 1021.83 220 1020.83 222.5C1019.93 225 1019.48 227.5 1019.48 230H1017.98L979.415 165.251L973.578 218.748V219.2C973.578 220.8 974.128 222.3 975.228 223.7C976.428 225 977.828 225.65 979.428 225.65H981.678V227H950.328V225.5H952.728C955.428 225.5 957.828 224.7 959.928 223.1C961.703 221.662 962.869 219.759 963.429 217.393L976.128 119.9H977.478ZM879.875 122V123.5H877.475C875.275 123.5 873.374 124.2 871.774 125.6C870.368 126.912 869.621 128.576 869.533 130.592L869.524 131V188C869.524 195.1 870.675 201.25 872.975 206.45C875.375 211.65 878.724 215.65 883.024 218.45C887.424 221.25 892.625 222.65 898.625 222.65C904.725 222.65 909.975 221.35 914.375 218.75C918.875 216.05 922.325 212.25 924.725 207.35C927.125 202.45 928.324 196.65 928.324 189.95V131L928.315 130.592C928.222 128.576 927.425 126.912 925.925 125.6C924.425 124.2 922.575 123.5 920.375 123.5H917.975V122H949.475V123.5H947.074C944.875 123.5 942.975 124.2 941.375 125.6C939.969 126.912 939.222 128.576 939.134 130.592L939.125 131V189.05C939.125 197.25 937.375 204.35 933.875 210.35C930.475 216.35 925.524 221 919.024 224.3C912.624 227.5 904.874 229.1 895.774 229.1C885.175 229.1 876.225 227.5 868.925 224.3C861.625 221 856.125 216.4 852.425 210.5C848.825 204.5 847.024 197.4 847.024 189.2V131L847.016 130.592C846.922 128.576 846.125 126.912 844.625 125.6C843.125 124.2 841.274 123.5 839.074 123.5H836.675V122H879.875ZM321.254 122V123.5H319.304C316.704 123.5 314.454 124.45 312.554 126.35C310.866 128.037 309.926 130.076 309.732 132.467L309.703 132.95V216.05C309.803 218.65 310.754 220.9 312.554 222.8C314.454 224.6 316.704 225.5 319.304 225.5H321.254V227H275.653V225.5H277.604C280.203 225.5 282.403 224.6 284.203 222.8C286.103 220.9 287.103 218.65 287.203 216.05V132.95L287.174 132.467C286.975 130.076 285.984 128.037 284.203 126.35C282.403 124.45 280.203 123.5 277.604 123.5H275.653V122H321.254ZM527.18 122C535.78 122 542.73 123.25 548.03 125.75C553.43 128.25 557.43 131.7 560.03 136.1C562.73 140.4 564.18 145.3 564.38 150.8C564.58 155.9 563.73 160.55 561.83 164.75C559.93 168.95 557.33 172.45 554.03 175.25C550.73 178.05 546.93 180.1 542.63 181.4C538.43 182.6 534.03 182.9 529.43 182.3C524.93 181.6 520.53 179.85 516.23 177.05V175.55H518.03C519.33 175.55 520.93 175.35 522.83 174.95C524.83 174.55 526.88 173.8 528.98 172.7C531.18 171.6 533.23 169.9 535.13 167.6C537.03 165.3 538.48 162.25 539.48 158.45C539.88 157.15 540.13 155.7 540.23 154.1C540.43 152.4 540.48 150.85 540.38 149.45C540.28 143.05 538.53 137.95 535.13 134.15C531.83 130.25 527.13 128.3 521.03 128.3H511.13V216.05C511.23 218.65 512.18 220.9 513.98 222.8C515.88 224.6 518.13 225.5 520.73 225.5H522.68V227H477.08V225.5H479.03C481.63 225.5 483.83 224.6 485.63 222.8C487.53 220.9 488.53 218.65 488.63 216.05V132.95L488.619 132.467C488.508 130.076 487.561 128.037 485.78 126.35C483.88 124.45 481.63 123.5 479.03 123.5H477.23L477.08 122H527.18ZM650.225 145.55H648.725V143.75C648.725 139.15 647.324 135.45 644.524 132.65C642.254 130.296 639.277 128.895 635.592 128.45H608.824V172.1H628.625C632.325 172 635.375 170.75 637.774 168.35C640.174 165.85 641.375 162.75 641.375 159.05V158H642.875V192.5H641.375V191.3C641.375 187.6 640.174 184.55 637.774 182.15C635.524 179.9 632.703 178.661 629.311 178.433L628.625 178.4H608.824V220.55H628.475C633.475 220.55 637.875 219.6 641.675 217.7C645.475 215.7 648.725 212.9 651.425 209.3C654.125 205.6 656.275 201.25 657.875 196.25H659.375L652.475 227H574.774V225.5H576.725C579.325 225.5 581.524 224.6 583.324 222.8C585.224 220.9 586.224 218.65 586.324 216.05V132.95L586.295 132.467C586.096 130.076 585.105 128.037 583.324 126.35C581.524 124.45 579.324 123.5 576.725 123.5H574.774V122H631.925C634.125 122 636.424 121.85 638.824 121.55C641.324 121.25 643.625 120.9 645.725 120.5C647.825 120.1 649.325 119.7 650.225 119.3V145.55ZM720.864 122C725.364 122 729.765 122.5 734.064 123.5C738.364 124.5 742.164 126.1 745.464 128.3C748.864 130.5 751.564 133.4 753.564 137C755.564 140.6 756.564 145.05 756.564 150.35C756.564 154.55 755.664 158.75 753.864 162.95C752.164 167.05 749.514 170.6 745.914 173.6C742.314 176.5 737.664 178.25 731.964 178.85C735.164 179.85 738.064 181.65 740.664 184.25C743.364 186.85 745.564 189.45 747.264 192.05C747.364 192.25 747.914 193.15 748.914 194.75C750.014 196.35 751.314 198.35 752.814 200.75C754.414 203.05 756.064 205.4 757.764 207.8C759.464 210.2 761.014 212.3 762.414 214.1C764.614 216.8 766.614 219 768.414 220.7C770.214 222.3 772.114 223.5 774.114 224.3C776.114 225 778.414 225.4 781.014 225.5H781.217C783.817 225.5 786.016 224.6 787.816 222.8C789.716 220.9 790.716 218.65 790.816 216.05V132.95L790.787 132.467C790.588 130.076 789.598 128.037 787.816 126.35C786.016 124.45 783.817 123.5 781.217 123.5H779.267V122H824.867V123.5H822.917C820.317 123.5 818.067 124.45 816.167 126.35C814.48 128.037 813.539 130.076 813.346 132.467L813.316 132.95V216.05C813.416 218.65 814.367 220.9 816.167 222.8C818.067 224.6 820.317 225.5 822.917 225.5H824.867V227H766.314C760.915 227 756.014 226.55 751.614 225.65C747.214 224.65 743.314 223 739.914 220.7C736.514 218.4 733.564 215.3 731.064 211.4C730.265 210.2 729.364 208.7 728.364 206.9C727.464 205 726.514 203 725.514 200.9C724.514 198.8 723.514 196.8 722.514 194.9C721.614 192.9 720.814 191.1 720.114 189.5C719.414 187.9 718.914 186.65 718.614 185.75C717.314 182.55 715.764 180.15 713.964 178.55C712.264 176.95 710.414 176 708.414 175.7V174.2H713.064C715.764 174.2 718.364 173.65 720.864 172.55C723.464 171.45 725.764 169.65 727.764 167.15C729.764 164.65 731.164 161.2 731.964 156.8C732.164 155.9 732.314 154.85 732.414 153.65C732.614 152.45 732.664 151.1 732.564 149.6C732.264 142.4 730.464 137.15 727.164 133.85C723.864 130.45 719.764 128.7 714.864 128.6C713.464 128.5 711.914 128.5 710.214 128.6H703.464V216.05C703.464 218.65 704.414 220.9 706.314 222.8C708.214 224.6 710.464 225.5 713.064 225.5H714.864V227H669.414V225.5H671.364C673.964 225.5 676.164 224.6 677.964 222.8C679.864 220.9 680.864 218.65 680.964 216.05V132.95L680.935 132.467C680.735 130.076 679.745 128.037 677.964 126.35C676.164 124.45 673.964 123.5 671.364 123.5H669.414V122H720.864ZM135.35 85.8193H130.445V92.1953H37.2695V85.8193H32.3662V76.502H135.35V85.8193ZM70.126 70.1279H39.6338C45.3481 66.35 49.6777 60.6478 51.7002 53.9443H70.126V70.1279ZM90.7236 70.1279H76.9922V53.9443H90.7236V70.1279ZM116.015 53.9443C118.037 60.6478 122.367 66.3499 128.081 70.1279H97.5889V53.9443H116.015ZM144.668 22.0742C157.171 22.3356 167.227 32.5518 167.227 45.1172C167.226 57.8461 156.907 68.1656 144.178 68.166C131.448 68.166 121.129 57.8464 121.129 45.1172C121.129 42.7258 121.494 40.4196 122.17 38.251H132.284C131.116 40.2708 130.446 42.6159 130.446 45.1172C130.447 52.7005 136.594 58.8486 144.178 58.8486C151.761 58.8481 157.909 52.7001 157.909 45.1172C157.909 37.6159 151.893 31.5199 144.423 31.3887V31.3857H23.2939V31.3887C23.2126 31.3872 23.1306 31.3857 23.0488 31.3857C15.4653 31.3857 9.31738 37.5337 9.31738 45.1172C9.31767 52.7005 15.4655 58.8486 23.0488 58.8486C30.6319 58.8484 36.78 52.7003 36.7803 45.1172C36.7803 42.616 36.1109 40.2708 34.9424 38.251H45.0566C45.7327 40.4196 46.0977 42.726 46.0977 45.1172C46.0974 57.8463 35.7779 68.1657 23.0488 68.166C10.3195 68.166 0.000255674 57.8464 0 45.1172C0 32.3877 10.3194 22.0684 23.0488 22.0684H144.668V22.0742ZM115.733 47.5684H51.9814V38.251H115.733V47.5684ZM152.514 9.31738H144.667V15.6924H23.0488V9.31738H17.1641V0H152.514V9.31738Z" fill="#0072F0"></path>
</svg>