<svg width="821" height="810" viewBox="0 0 821 810" fill="none" xmlns="http://www.w3.org/2000/svg">
<path d="M77.5078 699.474L124.112 776.008L168.708 699.474H170.058L182.943 796.32C183.52 798.989 184.774 801.107 186.708 802.673C188.808 804.273 191.158 805.073 193.758 805.073H196.158V806.573H151.158V805.224H153.408C155.108 805.224 156.508 804.573 157.608 803.273C158.708 801.874 159.258 800.373 159.258 798.773V798.289L153.404 744.44L125.358 793.073C125.358 793.073 124.858 793.973 123.858 795.773C122.858 797.473 121.858 799.573 120.858 802.073C119.958 804.573 119.508 807.073 119.508 809.573H118.008L79.4453 744.824L73.6084 798.321V798.773C73.6084 800.373 74.1579 801.873 75.2578 803.273C76.4578 804.573 77.858 805.224 79.458 805.224H81.708V806.573H50.3584V805.073H52.7578C55.4578 805.073 57.858 804.273 59.958 802.673C61.7336 801.235 62.8988 799.333 63.459 796.966L76.1582 699.474H77.5078ZM701.824 699.474L748.429 776.008L793.024 699.474H794.374L807.26 796.32C807.837 798.989 809.09 801.107 811.024 802.673C813.124 804.273 815.474 805.073 818.074 805.073H820.475V806.573H775.475V805.224H777.725C779.424 805.224 780.825 804.573 781.925 803.273C783.025 801.874 783.574 800.373 783.574 798.773V798.289L777.721 744.44L749.675 793.073C749.675 793.073 749.175 793.973 748.175 795.773C747.175 797.473 746.175 799.573 745.175 802.073C744.275 804.573 743.824 807.073 743.824 809.573H742.324L703.762 744.824L697.925 798.321V798.773C697.925 800.373 698.474 801.873 699.574 803.273C700.774 804.573 702.174 805.224 703.774 805.224H706.024V806.573H674.675V805.073H677.074C679.774 805.073 682.174 804.273 684.274 802.673C686.05 801.235 687.215 799.333 687.775 796.966L700.475 699.474H701.824ZM604.222 701.573V703.073H601.821C599.621 703.073 597.721 703.773 596.121 705.173C594.715 706.485 593.968 708.15 593.88 710.165L593.871 710.573V767.573C593.871 774.673 595.021 780.823 597.321 786.023C599.721 791.223 603.071 795.223 607.371 798.023C611.771 800.823 616.972 802.224 622.972 802.224C629.072 802.224 634.322 800.923 638.722 798.323C643.222 795.623 646.671 791.823 649.071 786.923C651.471 782.023 652.671 776.223 652.671 769.523V710.573L652.662 710.165C652.568 708.15 651.771 706.485 650.271 705.173C648.772 703.773 646.921 703.073 644.722 703.073H642.321V701.573H673.821V703.073H671.421C669.221 703.073 667.321 703.773 665.722 705.173C664.315 706.485 663.568 708.15 663.48 710.165L663.472 710.573V768.623C663.472 776.823 661.721 783.923 658.222 789.923C654.822 795.923 649.871 800.573 643.371 803.873C636.971 807.073 629.221 808.673 620.121 808.673C609.521 808.673 600.571 807.073 593.271 803.873C585.971 800.573 580.471 795.973 576.771 790.073C573.172 784.073 571.371 776.973 571.371 768.773V710.573L571.362 710.165C571.268 708.15 570.472 706.485 568.972 705.173C567.472 703.773 565.621 703.073 563.421 703.073H561.021V701.573H604.222ZM45.6006 701.573V703.073H43.6504C41.0505 703.073 38.8003 704.023 36.9004 705.923C35.213 707.61 34.2725 709.65 34.0791 712.04L34.0498 712.523V795.623C34.1498 798.223 35.1004 800.473 36.9004 802.373C38.8004 804.173 41.0504 805.073 43.6504 805.073H45.6006V806.573H0V805.073H1.9502C4.55015 805.073 6.74982 804.173 8.5498 802.373C10.4498 800.473 11.4498 798.223 11.5498 795.623V712.523L11.5205 712.04C11.3212 709.65 10.331 707.61 8.5498 705.923C6.74987 704.023 4.55001 703.073 1.9502 703.073H0V701.573H45.6006ZM251.526 701.573C260.126 701.573 267.077 702.823 272.377 705.323C277.777 707.823 281.777 711.273 284.377 715.673C287.077 719.973 288.527 724.873 288.727 730.373C288.927 735.473 288.077 740.123 286.177 744.323C284.277 748.523 281.677 752.023 278.377 754.823C275.077 757.623 271.277 759.674 266.977 760.974C262.777 762.174 258.376 762.473 253.776 761.873C249.277 761.173 244.877 759.423 240.577 756.623V755.123H242.377C243.677 755.123 245.277 754.923 247.177 754.523C249.177 754.123 251.227 753.373 253.327 752.273C255.527 751.173 257.577 749.473 259.477 747.173C261.376 744.873 262.827 741.823 263.827 738.023C264.227 736.723 264.477 735.273 264.577 733.673C264.777 731.973 264.827 730.423 264.727 729.023C264.627 722.623 262.876 717.524 259.477 713.724C256.177 709.824 251.477 707.873 245.377 707.873H235.477V795.623C235.577 798.223 236.527 800.473 238.327 802.373C240.227 804.173 242.477 805.073 245.077 805.073H247.026V806.573H201.427V805.073H203.377C205.977 805.073 208.177 804.173 209.977 802.373C211.877 800.473 212.877 798.223 212.977 795.623V712.523L212.966 712.04C212.854 709.65 211.908 707.61 210.127 705.923C208.227 704.023 205.977 703.073 203.377 703.073H201.577L201.427 701.573H251.526ZM374.571 725.123H373.071V723.323C373.071 718.723 371.671 715.024 368.871 712.224C366.601 709.869 363.623 708.469 359.938 708.023H333.171V751.673H352.972C356.672 751.573 359.721 750.323 362.121 747.923C364.521 745.423 365.722 742.323 365.722 738.623V737.573H367.222V772.073H365.722V770.873C365.722 767.173 364.521 764.124 362.121 761.724C359.871 759.474 357.05 758.234 353.657 758.006L352.972 757.974H333.171V800.123H352.821C357.821 800.123 362.221 799.173 366.021 797.273C369.821 795.273 373.072 792.473 375.771 788.873C378.471 785.173 380.622 780.823 382.222 775.823H383.722L376.821 806.573H299.121V805.073H301.071C303.671 805.073 305.871 804.173 307.671 802.373C309.571 800.473 310.571 798.223 310.671 795.623V712.523L310.642 712.04C310.442 709.65 309.452 707.61 307.671 705.923C305.871 704.023 303.671 703.073 301.071 703.073H299.121V701.573H356.271C358.471 701.573 360.771 701.423 363.171 701.123C365.671 700.823 367.971 700.473 370.071 700.073C372.171 699.673 373.671 699.273 374.571 698.873V725.123ZM445.211 701.573C449.711 701.573 454.111 702.073 458.411 703.073C462.711 704.073 466.511 705.673 469.811 707.873C473.211 710.073 475.911 712.973 477.911 716.573C479.911 720.173 480.911 724.623 480.911 729.923C480.911 734.123 480.011 738.323 478.211 742.523C476.511 746.623 473.861 750.173 470.261 753.173C466.661 756.073 462.011 757.823 456.311 758.423C459.511 759.423 462.411 761.223 465.011 763.823C467.711 766.423 469.91 769.023 471.61 771.623C471.71 771.823 472.261 772.723 473.261 774.323C474.361 775.923 475.661 777.923 477.161 780.323C478.761 782.623 480.41 784.973 482.11 787.373C483.81 789.773 485.361 791.873 486.761 793.673C488.961 796.373 490.961 798.573 492.761 800.273C494.561 801.873 496.461 803.073 498.461 803.873C500.461 804.573 502.761 804.973 505.36 805.073H505.563C508.163 805.073 510.363 804.173 512.163 802.373C514.063 800.473 515.063 798.223 515.163 795.623V712.523L515.134 712.04C514.935 709.65 513.944 707.61 512.163 705.923C510.363 704.023 508.163 703.073 505.563 703.073H503.613V701.573H549.214V703.073H547.264C544.664 703.073 542.414 704.023 540.514 705.923C538.826 707.61 537.886 709.65 537.692 712.04L537.663 712.523V795.623C537.763 798.223 538.714 800.473 540.514 802.373C542.414 804.173 544.664 805.073 547.264 805.073H549.214V806.573H490.661C485.261 806.573 480.361 806.124 475.961 805.224C471.561 804.224 467.661 802.573 464.261 800.273C460.861 797.974 457.911 794.873 455.411 790.974C454.611 789.774 453.711 788.273 452.711 786.474C451.811 784.574 450.86 782.574 449.86 780.474C448.86 778.374 447.86 776.374 446.86 774.474C445.96 772.474 445.161 770.673 444.461 769.073C443.761 767.473 443.261 766.223 442.961 765.323C441.661 762.123 440.111 759.723 438.311 758.123C436.611 756.523 434.761 755.573 432.761 755.273V753.773H437.411C440.111 753.773 442.711 753.223 445.211 752.123C447.811 751.023 450.111 749.223 452.11 746.724C454.11 744.224 455.511 740.773 456.311 736.373C456.51 735.473 456.661 734.423 456.761 733.224C456.961 732.024 457.011 730.673 456.911 729.173C456.611 721.973 454.811 716.723 451.511 713.423C448.211 710.023 444.111 708.273 439.211 708.173C437.811 708.073 436.261 708.073 434.561 708.173H427.811V795.623C427.811 798.223 428.761 800.473 430.661 802.373C432.561 804.173 434.811 805.073 437.411 805.073H439.211V806.573H393.761V805.073H395.711C398.311 805.073 400.511 804.173 402.311 802.373C404.211 800.473 405.211 798.223 405.311 795.623V712.523L405.281 712.04C405.082 709.65 404.092 707.61 402.311 705.923C400.511 704.023 398.311 703.073 395.711 703.073H393.761V701.573H445.211ZM549.347 566.146H263.347V550.258H549.347V566.146ZM502.517 515.971C502.517 528.055 511.671 537.999 523.423 539.251V539.387H289.271V539.251C301.022 537.999 310.177 528.055 310.177 515.971V485.865H502.517V515.971ZM321.049 523.497H491.645V512.626H321.049V523.497ZM373.732 464.123H341.118V178.959H373.732V464.123ZM428.09 464.123H384.604L384.604 178.959H428.09V464.123ZM471.575 464.123H438.961V178.959H471.575V464.123ZM494.153 146.345H485.791V157.217H326.902V146.345H318.54V130.456H494.153V146.345ZM382.932 119.585H330.934C340.678 113.142 348.064 103.42 351.513 91.9883H382.932V119.585ZM418.055 119.585H394.64V91.9883H418.055V119.585ZM461.182 91.9883C464.63 103.42 472.016 113.142 481.761 119.585H429.763V91.9883H461.182ZM510.043 37.6416C531.363 38.087 548.51 55.5084 548.511 76.9355C548.511 98.6425 530.913 116.24 509.206 116.24C487.499 116.24 469.902 98.6424 469.902 76.9355C469.902 72.8582 470.524 68.9262 471.677 65.2285H488.924C486.932 68.6725 485.791 72.6708 485.791 76.9355C485.791 89.8672 496.274 100.351 509.206 100.352C522.138 100.352 532.622 89.8673 532.622 76.9355C532.622 64.1435 522.363 53.7484 509.624 53.5254V53.5205H303.069V53.5254C302.93 53.5229 302.79 53.5205 302.65 53.5205C289.719 53.5207 279.236 64.004 279.235 76.9355C279.235 89.8672 289.719 100.351 302.65 100.352C315.582 100.352 326.066 89.8674 326.066 76.9355C326.066 72.6709 324.926 68.6725 322.934 65.2285H340.181C341.333 68.9262 341.955 72.8582 341.955 76.9355C341.955 98.6425 324.357 116.24 302.65 116.24C280.944 116.24 263.347 98.6424 263.347 76.9355C263.347 55.2288 280.944 37.632 302.65 37.6318H510.043V37.6416ZM460.703 81.1172H351.99V65.2285H460.703V81.1172ZM523.423 15.8887H510.043V26.7607H302.65V15.8887H292.615V0H523.423V15.8887Z" fill="#0072F0"></path>
</svg>